HIERARCHY
ROOT Hips
{
    OFFSET   0.000000   0.000000   0.000000
    CHANNELS 6 Xposition Yposition Zposition Zrotation Xrotation Yrotation
    JOINT Chest
    {
        OFFSET   0.000000   8.007230   0.000000
        CHANNELS 3 Zrotation Xrotation Yrotation
        JOINT Chest2
        {
            OFFSET   0.000000  22.077100   0.000000
            CHANNELS 3 Zrotation Xrotation Yrotation
            JOINT Neck
            {
                OFFSET   0.000000  23.255100   0.000000
                CHANNELS 3 Zrotation Xrotation Yrotation
                JOINT Head
                {
                    OFFSET   0.000000  14.370100   1.956600
                    CHANNELS 3 Zrotation Xrotation Yrotation
                    End Site
                    {
                        OFFSET   0.000000  19.566000   0.000000
                    }
                }
            }
            JOINT LeftCollar
            {
                OFFSET   3.911900  19.017000  -0.467063
                CHANNELS 3 Zrotation Xrotation Yrotation
                JOINT LeftShoulder
                {
                    OFFSET  10.383700   0.000000   0.000000
                    CHANNELS 3 Zrotation Xrotation Yrotation
                    JOINT LeftElbow
                    {
                        OFFSET  26.662100   0.001193   0.000980
                        CHANNELS 3 Zrotation Xrotation Yrotation
                        JOINT LeftWrist
                        {
                            OFFSET  28.869000  -0.000059  -0.000082
                            CHANNELS 3 Zrotation Xrotation Yrotation
                            JOINT LeftFinger0
                            {
                                OFFSET   2.044650  -2.323450   3.252850
                                CHANNELS 3 Zrotation Xrotation Yrotation
                                JOINT LeftFinger01
                                {
                                    OFFSET   3.088130   0.000000   0.000000
                                    CHANNELS 3 Zrotation Xrotation Yrotation
                                    JOINT LeftFinger02
                                    {
                                        OFFSET   2.639460   0.000000   0.000000
                                        CHANNELS 3 Zrotation Xrotation Yrotation
                                        End Site
                                        {
                                            OFFSET   2.582190   0.000000   0.000000
                                        }
                                    }
                                }
                            }
                            JOINT LeftFinger1
                            {
                                OFFSET   8.364480   0.000000   3.252850
                                CHANNELS 3 Zrotation Xrotation Yrotation
                                JOINT LeftFinger11
                                {
                                    OFFSET   4.646930   0.000000   0.000000
                                    CHANNELS 3 Zrotation Xrotation Yrotation
                                    JOINT LeftFinger12
                                    {
                                        OFFSET   2.323470   0.000000   0.000000
                                        CHANNELS 3 Zrotation Xrotation Yrotation
                                        End Site
                                        {
                                            OFFSET   2.273050   0.000000   0.000000
                                        }
                                    }
                                }
                            }
                            JOINT LeftFinger2
                            {
                                OFFSET   8.364490   0.000016   1.078090
                                CHANNELS 3 Zrotation Xrotation Yrotation
                                JOINT LeftFinger21
                                {
                                    OFFSET   5.111610   0.000000   0.000000
                                    CHANNELS 3 Zrotation Xrotation Yrotation
                                    JOINT LeftFinger22
                                    {
                                        OFFSET   2.788150   0.000016   0.000000
                                        CHANNELS 3 Zrotation Xrotation Yrotation
                                        End Site
                                        {
                                            OFFSET   2.727660   0.000000   0.000000
                                        }
                                    }
                                }
                            }
                            JOINT LeftFinger3
                            {
                                OFFSET   7.899780   0.000015  -1.078090
                                CHANNELS 3 Zrotation Xrotation Yrotation
                                JOINT LeftFinger31
                                {
                                    OFFSET   4.646930   0.000000   0.000000
                                    CHANNELS 3 Zrotation Xrotation Yrotation
                                    JOINT LeftFinger32
                                    {
                                        OFFSET   2.323470   0.000000   0.000000
                                        CHANNELS 3 Zrotation Xrotation Yrotation
                                        End Site
                                        {
                                            OFFSET   2.273050   0.000000   0.000000
                                        }
                                    }
                                }
                            }
                            JOINT LeftFinger4
                            {
                                OFFSET   7.435090   0.000000  -3.252850
                                CHANNELS 3 Zrotation Xrotation Yrotation
                                JOINT LeftFinger41
                                {
                                    OFFSET   3.717550   0.000000   0.000000
                                    CHANNELS 3 Zrotation Xrotation Yrotation
                                    JOINT LeftFinger42
                                    {
                                        OFFSET   1.858770   0.000000   0.000000
                                        CHANNELS 3 Zrotation Xrotation Yrotation
                                        End Site
                                        {
                                            OFFSET   1.818440   0.000000   0.000000
                                        }
                                    }
                                }
                            }
                        }
                    }
                }
            }
            JOINT RightCollar
            {
                OFFSET  -3.911910  19.017000  -0.467062
                CHANNELS 3 Zrotation Xrotation Yrotation
                JOINT RightShoulder
                {
                    OFFSET -10.383700   0.000014   0.000000
                    CHANNELS 3 Zrotation Xrotation Yrotation
                    JOINT RightElbow
                    {
                        OFFSET -26.662100   0.001225   0.001091
                        CHANNELS 3 Zrotation Xrotation Yrotation
                        JOINT RightWrist
                        {
                            OFFSET -28.869000  -0.000020  -0.000085
                            CHANNELS 3 Zrotation Xrotation Yrotation
                            JOINT RightFinger0
                            {
                                OFFSET  -2.044650  -2.323490   3.252850
                                CHANNELS 3 Zrotation Xrotation Yrotation
                                JOINT RightFinger01
                                {
                                    OFFSET  -3.088130   0.000000   0.000000
                                    CHANNELS 3 Zrotation Xrotation Yrotation
                                    JOINT RightFinger02
                                    {
                                        OFFSET  -2.639460   0.000000   0.000000
                                        CHANNELS 3 Zrotation Xrotation Yrotation
                                        End Site
                                        {
                                            OFFSET  -2.582190   0.000000   0.000000
                                        }
                                    }
                                }
                            }
                            JOINT RightFinger1
                            {
                                OFFSET  -8.364480   0.000000   3.252850
                                CHANNELS 3 Zrotation Xrotation Yrotation
                                JOINT RightFinger11
                                {
                                    OFFSET  -4.646930   0.000000   0.000000
                                    CHANNELS 3 Zrotation Xrotation Yrotation
                                    JOINT RightFinger12
                                    {
                                        OFFSET  -2.323470   0.000000   0.000000
                                        CHANNELS 3 Zrotation Xrotation Yrotation
                                        End Site
                                        {
                                            OFFSET  -2.273050   0.000000   0.000000
                                        }
                                    }
                                }
                            }
                            JOINT RightFinger2
                            {
                                OFFSET  -8.364480   0.000000   1.078090
                                CHANNELS 3 Zrotation Xrotation Yrotation
                                JOINT RightFinger21
                                {
                                    OFFSET  -5.111620   0.000000   0.000000
                                    CHANNELS 3 Zrotation Xrotation Yrotation
                                    JOINT RightFinger22
                                    {
                                        OFFSET  -2.788160   0.000000   0.000000
                                        CHANNELS 3 Zrotation Xrotation Yrotation
                                        End Site
                                        {
                                            OFFSET  -2.727660   0.000000   0.000000
                                        }
                                    }
                                }
                            }
                            JOINT RightFinger3
                            {
                                OFFSET  -7.899780   0.000000  -1.078090
                                CHANNELS 3 Zrotation Xrotation Yrotation
                                JOINT RightFinger31
                                {
                                    OFFSET  -4.646930   0.000000   0.000000
                                    CHANNELS 3 Zrotation Xrotation Yrotation
                                    JOINT RightFinger32
                                    {
                                        OFFSET  -2.323470   0.000000   0.000000
                                        CHANNELS 3 Zrotation Xrotation Yrotation
                                        End Site
                                        {
                                            OFFSET  -2.273050   0.000000   0.000000
                                        }
                                    }
                                }
                            }
                            JOINT RightFinger4
                            {
                                OFFSET  -7.435090   0.000000  -3.252850
                                CHANNELS 3 Zrotation Xrotation Yrotation
                                JOINT RightFinger41
                                {
                                    OFFSET  -3.717550   0.000000   0.000000
                                    CHANNELS 3 Zrotation Xrotation Yrotation
                                    JOINT RightFinger42
                                    {
                                        OFFSET  -1.858760   0.000000   0.000000
                                        CHANNELS 3 Zrotation Xrotation Yrotation
                                        End Site
                                        {
                                            OFFSET  -1.818440   0.000000   0.000000
                                        }
                                    }
                                }
                            }
                        }
                    }
                }
            }
        }
    }
    JOINT LeftHip
    {
        OFFSET   9.783030   0.000000   0.000000
        CHANNELS 3 Zrotation Xrotation Yrotation
        JOINT LeftKnee
        {
            OFFSET   0.000063 -41.789100   0.000608
            CHANNELS 3 Zrotation Xrotation Yrotation
            JOINT LeftAnkle
            {
                OFFSET   0.000048 -41.133200  -0.000184
                CHANNELS 3 Zrotation Xrotation Yrotation
                JOINT LeftToe
                {
                    OFFSET   0.000000  -6.358960  14.674500
                    CHANNELS 3 Zrotation Xrotation Yrotation
                    End Site
                    {
                        OFFSET   0.000000   0.000000   3.913200
                    }
                }
            }
        }
    }
    JOINT RightHip
    {
        OFFSET  -9.783030   0.000000   0.000000
        CHANNELS 3 Zrotation Xrotation Yrotation
        JOINT RightKnee
        {
            OFFSET   0.000071 -41.789100   0.001239
            CHANNELS 3 Zrotation Xrotation Yrotation
            JOINT RightAnkle
            {
                OFFSET   0.000037 -41.133200  -0.000166
                CHANNELS 3 Zrotation Xrotation Yrotation
                JOINT RightToe
                {
                    OFFSET   0.000000  -6.358960  14.674500
                    CHANNELS 3 Zrotation Xrotation Yrotation
                    End Site
                    {
                        OFFSET   0.000000   0.000000   3.913200
                    }
                }
            }
        }
    }
}
MOTION
Frames: 4
Frame Time:   0.016667
 -6.005710  89.081500  -4.872900   0.164993 -24.849500   0.758836   0.368109  14.293800  -0.843240   1.011360  28.579800  -1.877260  -0.004990   5.245660   0.000447  -0.008285  10.636800   9.731070  -6.551070  -5.764170   4.692160 -54.039100  33.621900 -40.315000   5.378270 -22.633000 -90.535400  28.299200 -17.754500  22.435600  50.306900  49.470000 -97.223400 -19.138200   0.003640   0.001306  -4.569100   0.000931  -0.002107 -41.361300   5.541480  -6.258350 -34.087900  -0.001565  -0.002168 -24.216600  -0.004571  -0.004778 -39.156500  -3.573630   4.372070 -54.286900  -0.001818  -0.000080 -37.062000   0.001398  -0.006037 -37.974300  -3.466850   4.428340 -54.201800   0.000790  -0.000849 -36.682700  -0.002381  -0.002219 -52.510200  -5.536380   4.232150 -79.072500   0.000132   0.001786 -52.662300  -0.004090   0.000093  10.920200  -3.414350  14.232700  56.250000  23.338500  35.750000  -7.292530 -21.340600  89.570500 -50.345700  -8.588210  19.360900 -41.911300  41.522800  85.502500  25.425300   0.000929  -0.005839   7.712660   0.004890  -0.003046  36.800600  -2.455630  -3.277610  30.166900   0.007110  -0.003746  21.116900   0.002917   0.001607  28.323600  -4.020940  -7.412410  37.141600  -0.001062  -0.004312  24.736300   0.000000  -0.011290  34.239400  -5.227110  -7.624240  51.881900   0.003191  -0.002814  34.553400   0.004081  -0.001959  56.224000  -9.695630  -6.427000  85.154300   0.003080   0.000757  56.712700  -0.000747  -0.003643   3.373200  16.019600   2.341790   1.105160  16.434800  11.181600  -8.128860  -7.884290   2.634100   0.000000   0.000000   0.000000   5.954440  18.864300 -10.422700  -1.861630   8.916370  -9.319740 -11.215600  -2.029750  -1.002880   0.000000   0.000000  -0.000000
 -5.988500  89.081300  -4.854000   0.195659 -24.874700   0.862779   0.385648  14.297700  -0.874020   1.055690  28.587200  -1.946900  -0.089272   5.197120   0.007995  -0.149581  10.542200  10.082700  -6.566210  -5.792620   4.651780 -53.739700  33.735300 -40.569500   5.311610 -22.963600 -90.472500  28.559500 -17.865600  22.357000  50.652600  49.714600 -97.676300 -21.879900   0.003663   0.001531  -5.939980   0.000926  -0.001991 -41.461000   5.698050  -6.404880 -34.180900  -0.001573  -0.002131 -24.302400  -0.004566  -0.004723 -39.372400  -3.573510   4.340900 -54.300100  -0.001774  -0.000040 -37.128900   0.001395  -0.006032 -38.163300  -3.428910   4.343940 -54.216200   0.000802  -0.000842 -36.743000  -0.002442  -0.002222 -52.551600  -5.553620   4.238750 -79.136000   0.000163   0.001766 -52.704600  -0.004068   0.000115  10.970800  -3.306680  14.224600  56.959100  22.623800  35.013200  -7.186360 -20.509600  89.909600 -50.320800  -8.578810  19.536400 -41.800500  41.387400  85.335700  26.362700   0.001036  -0.004228   8.181350   0.004885  -0.002959  36.807600  -2.479430  -3.317070  30.174800   0.007104  -0.003749  21.122500   0.002940   0.001573  28.325300  -4.018510  -7.407600  37.193700  -0.001033  -0.004342  24.771000  -0.000045  -0.011238  34.239800  -5.227210  -7.624150  51.882500   0.003173  -0.002770  34.553800   0.004087  -0.002045  56.117400  -9.726060  -6.472600  85.002900   0.003130   0.000739  56.611900  -0.000763  -0.003688   3.370180  16.039200   2.349280   1.110910  16.444800  11.135300  -8.121110  -7.902670   2.576460   0.000000   0.000000   0.000000   5.970480  18.901200 -10.409600  -1.863690   8.928530  -9.372010 -11.208300  -2.038240  -1.078130  -0.000000   0.000000   0.000000
 -5.969140  89.081200  -4.832380   0.235640 -24.907100   0.966665   0.400691  14.301600  -0.913594   1.099890  28.594300  -2.034600  -0.184939   5.167830   0.016642  -0.311036  10.479000  10.511600  -6.576000  -5.821040   4.616370 -53.407100  33.847200 -40.843800   5.256210 -23.331900 -90.433700  28.931500 -17.913300  22.275200  51.336700  50.183200 -98.567900 -24.848000   0.003686   0.001780  -7.424010   0.000919  -0.001866 -41.587500   5.767440  -6.460340 -34.292800  -0.001581  -0.002095 -24.405600  -0.004562  -0.004667 -39.585800  -3.573380   4.310180 -54.313000  -0.001732   0.000000 -37.194800   0.001392  -0.006028 -38.375200  -3.415990   4.303150 -54.232200   0.000810  -0.000834 -36.810900  -0.002503  -0.002225 -52.617700  -5.580920   4.249340 -79.237400   0.000192   0.001741 -52.772100  -0.004046   0.000130  11.005200  -3.183490  14.218500  57.680200  21.924300  34.297700  -7.059770 -19.663500  90.221400 -50.315200  -8.571990  19.633100 -41.446400  40.947800  84.791700  28.096800   0.001148  -0.003770   9.048370   0.004878  -0.002932  36.875100  -2.510680  -3.343200  30.230500   0.007100  -0.003753  21.161400   0.002965   0.001540  28.333800  -4.012170  -7.393620  37.338700  -0.001002  -0.004369  24.867600  -0.000107  -0.011185  34.242400  -5.227910  -7.623530  51.886500   0.003154  -0.002727  34.556400   0.004095  -0.002131  56.047100  -9.746130  -6.502620  84.903100   0.003177   0.000721  56.545500  -0.000776  -0.003733   3.364520  16.071300   2.360580   1.117260  16.452500  11.090800  -8.116330  -7.917400   2.516910  -0.000000   0.000000   0.000000   5.975910  18.938000 -10.376000  -1.864950   8.964380  -9.432120 -11.203300  -2.051830  -1.161340  -0.000000   0.000000  -0.000000
 -5.945250  89.081000  -4.807990   0.279182 -24.943200   1.058740   0.413594  14.300500  -0.961466   1.141750  28.591200  -2.139020  -0.283964   5.169120   0.025735  -0.484106  10.471300  11.019100  -6.574880  -5.812940   4.605670 -53.156800  33.902800 -41.075900   5.288490 -23.641700 -90.391100  29.176400 -17.807700  22.220300  52.193500  50.744600 -99.674000 -27.699000   0.003712   0.002009  -8.849530   0.000917  -0.001797 -41.737500   5.592550  -6.237460 -34.399300  -0.001571  -0.002054 -24.503900  -0.004565  -0.004612 -39.727300  -3.573190   4.290030 -54.321200  -0.001677   0.000053 -37.238100   0.001382  -0.006047 -38.590300  -3.485730   4.365080 -54.248300   0.000815  -0.000822 -36.882000  -0.002560  -0.002222 -52.725600  -5.625620   4.266610 -79.403100   0.000212   0.001713 -52.882400  -0.004030   0.000151  11.006100  -3.040890  14.199600  58.327200  21.342500  33.703800  -6.946810 -18.957400  90.467400 -50.446300  -8.540860  19.597300 -40.620200  39.848200  83.505900  30.346000   0.001267  -0.003120  10.173000   0.004869  -0.002883  37.107300  -2.579460  -3.405300  30.422500   0.007097  -0.003755  21.295700   0.003001   0.001509  28.359200  -3.998910  -7.361720  37.658300  -0.000972  -0.004394  25.080400  -0.000123  -0.011129  34.330100  -5.232520  -7.603570  52.017200   0.003121  -0.002683  34.643400   0.004096  -0.002211  56.068400  -9.740290  -6.493580  84.933300   0.003219   0.000701  56.565600  -0.000796  -0.003773   3.347870  16.096300   2.366230   1.117150  16.470300  11.062400  -8.109480  -7.927420   2.462790  -0.000000   0.000000   0.000000   5.972920  18.967400 -10.323700  -1.863440   9.021280  -9.507270 -11.202300  -2.070010  -1.235950  -0.000000   0.000000  -0.000000
